{"title":"[ShepardTDS] Sankarea Dual Audio Uncensored [720p 8-bit x265 HEV","uid":12783743,"size":2610727681,"categoryP":"video","categoryS":"tv_shows","magnet":"?xt=urn:btih:eab7e9915b2c62e925ef9c69eda3aca942f4b239&amp;dn=%5BShepardTDS%5D+Sankarea+Dual+Audio+Uncensored+%5B720p+8-bit+x265+HEV&amp;tr=udp%3A%2F%2Ftracker.leechers-paradise.org%3A6969&amp;tr=udp%3A%2F%2Fzer0day.ch%3A1337&amp;tr=udp%3A%2F%2Fopen.demonii.com%3A1337&amp;tr=udp%3A%2F%2Ftracker.coppersurfer.tk%3A6969&amp;tr=udp%3A%2F%2Fexodus.desync.com%3A6969","seeders":0,"leechers":1,"uploader":"ShepardTDS","files":18,"time":1447841022,"description":"Constant Quality encoding.\r\nVariable Bit rates\r\nED and OP included\r\nBlu-Ray Source\r\nAll 3 OVAs HardSubbed and in 576p\r\n\r\nGeneral\r\n\r\nFormat : Matroska\r\nFile size : 149 MiB-195 MiB\r\nDuration : 24mn 10s\r\nOverall bit rate : 862 Kbps-1,128 Kbps\r\nEncoded date : UTC 2015-11-08 19:13:02\r\nWriting application : mkvmerge v7.7.0 ('Six Voices') 32bit built on Feb 28 2015 23:23:00\r\nWriting library : libebml v1.3.1 + libmatroska v1.4.2\r\n\r\nVideo\r\nID : 1\r\nFormat : V_MPEGH/ISO/HEVC\r\nCodec ID : V_MPEGH/ISO/HEVC\r\nDuration : 24mn 10s\r\nBit rate : 460 Kbps-722 Kbps\r\nWidth : 1 280 pixels\r\nHeight : 720 pixels\r\nDisplay aspect ratio : 16:9\r\nFrame rate : 23.976 fps\r\nBits/(Pixel*Frame) : 0.021\r\nStream size : 79.6 MiB (53%)\r\n\r\nAudio #1\r\nID : 2\r\nFormat : AC-3\r\nFormat/Info : Audio Coding 3\r\nMode extension : CM (complete main)\r\nCodec ID : A_AC3\r\nDuration : 24mn 10s\r\nBit rate mode : Constant\r\nBit rate : 192 Kbps\r\nChannel(s) : 6 channels\r\nChannel positions : Front: L C R, Side: L R, LFE\r\nSampling rate : 48.0 KHz\r\nBit depth : 16 bits\r\nCompression mode : Lossy\r\nStream size : 33.2 MiB (22%)\r\nLanguage : English\r\n\r\nAudio #2\r\nID : 3\r\nFormat : AC-3\r\nFormat/Info : Audio Coding 3\r\nMode extension : CM (complete main)\r\nCodec ID : A_AC3\r\nDuration : 24mn 10s\r\nBit rate mode : Constant\r\nBit rate : 192 Kbps\r\nChannel(s) : 2 channels\r\nChannel positions : Front: L R\r\nSampling rate : 48.0 KHz\r\nBit depth : 16 bits\r\nCompression mode : Lossy\r\nStream size : 33.2 MiB (22%)\r\nLanguage : Japanese\r\n\r\nText #1\r\nID : 4\r\nFormat : ASS\r\nCodec ID : S_TEXT/ASS\r\nCodec ID/Info : Advanced Sub Station Alpha\r\nCompression mode : Lossless\r\nTitle : English Signs/Songs\r\nLanguage : English\r\n\r\nText #2\r\nID : 5\r\nFormat : ASS\r\nCodec ID : S_TEXT/ASS\r\nCodec ID/Info : Advanced Sub Station Alpha\r\nCompression mode : Lossless\r\nTitle : English Subtitles\r\nLanguage : English\r\n\r\nMenu\r\n00:00:00.000 : en:Prologue\r\n00:00:17.017 : en:Opening\r\n00:01:46.857 : en:Part A\r\n00:10:44.852 : en:Part B\r\n00:22:09.828 : en:Ending\r\n00:23:39.835 : en:Preview\r\n\r\n\r\nFormat : Matroska\r\nFile size : 105 MiB\r\nDuration : 23mn 40s\r\nOverall bit rate : 619 Kbps\r\nEncoded date : UTC 2015-11-14 14:31:09\r\nWriting application : mkvmerge v7.7.0 ('Six Voices') 32bit built on Feb 28 2015 23:23:00\r\nWriting library : libebml v1.3.1 + libmatroska v1.4.2\r\n\r\nVideo\r\nID : 1\r\nFormat : V_MPEGH/ISO/HEVC\r\nCodec ID : V_MPEGH/ISO/HEVC\r\nDuration : 23mn 40s\r\nBit rate : 415 Kbps\r\nWidth : 1 024 pixels\r\nHeight : 576 pixels\r\nDisplay aspect ratio : 16:9\r\nFrame rate : 23.976 fps\r\nBits/(Pixel*Frame) : 0.029\r\nStream size : 70.3 MiB (67%)\r\n\r\nAudio\r\nID : 2\r\nFormat : AC-3\r\nFormat/Info : Audio Coding 3\r\nMode extension : CM (complete main)\r\nCodec ID : A_AC3\r\nDuration : 23mn 40s\r\nBit rate mode : Constant\r\nBit rate : 192 Kbps\r\nChannel(s) : 2 channels\r\nChannel positions : Front: L R\r\nSampling rate : 48.0 KHz\r\nBit depth : 16 bits\r\nCompression mode : Lossy\r\nStream size : 32.5 MiB (31%)\r\nLanguage : Japanese","torrent":{"xt":"urn:btih:eab7e9915b2c62e925ef9c69eda3aca942f4b239","amp;dn":"%5BShepardTDS%5D+Sankarea+Dual+Audio+Uncensored+%5B720p+8-bit+x265+HEV","amp;tr":["udp%3A%2F%2Ftracker.leechers-paradise.org%3A6969","udp%3A%2F%2Fzer0day.ch%3A1337","udp%3A%2F%2Fopen.demonii.com%3A1337","udp%3A%2F%2Ftracker.coppersurfer.tk%3A6969","udp%3A%2F%2Fexodus.desync.com%3A6969"],"infoHash":"eab7e9915b2c62e925ef9c69eda3aca942f4b239","infoHashBuffer":{"type":"Buffer","data":[234,183,233,145,91,44,98,233,37,239,156,105,237,163,172,169,66,244,178,57]},"announce":[],"urlList":[]}}